<svg xmlns="http://www.w3.org/2000/svg" viewBox="0 0 100 100">
  <rect width="100" height="100" rx="22" fill="#0C0A09"/>
  <g transform="translate(50,49.5) scale(0.40) translate(-100,-105)" fill="none">
    <g stroke="#fff" stroke-width="12" stroke-linecap="round">
      <path d="M58.7 168.98 A72 72 0 1 1 141.3 168.98"/>
      <path d="M69.03 154.24 A54 54 0 1 1 130.97 154.24"/>
    </g>
    <rect x="74" y="78" width="52" height="50" rx="13" fill="#fff"/>
    <g fill="#0C0A09">
      <circle cx="90" cy="91" r="3.6"/>
      <rect x="86.6" y="97" width="6.8" height="19" rx="3.2"/>
      <path fill-rule="evenodd" d="M101 97 h8.5 a9.5 9.5 0 0 1 9.5 9.5 a9.5 9.5 0 0 1 -9.5 9.5 H101 Z M107.6 103 v7 h1.9 a3.5 3.5 0 0 0 0 -7 Z"/>
    </g>
    <path d="M100 150 C113 150 125 171 120.5 181.5 C116.5 191 83.5 191 79.5 181.5 C75 171 87 150 100 150 Z" fill="#fff"/>
  </g>
</svg>
