<svg xmlns="http://www.w3.org/2000/svg" viewBox="0 0 200 210" fill="none" role="img" aria-label="iDrop logo mark">
  <g stroke="currentColor" stroke-width="11" stroke-linecap="round" fill="none">
    <path d="M58.7 168.98 A72 72 0 1 1 141.3 168.98"/>
    <path d="M69.03 154.24 A54 54 0 1 1 130.97 154.24"/>
  </g>
  <g>
    <rect x="74" y="78" width="52" height="50" rx="13" fill="currentColor"/>
    <g fill="var(--mark-bg, #000)">
      <circle cx="90" cy="91" r="3.6"/>
      <rect x="86.6" y="97" width="6.8" height="19" rx="3.2"/>
      <path fill-rule="evenodd" d="M101 97 h8.5 a9.5 9.5 0 0 1 9.5 9.5 a9.5 9.5 0 0 1 -9.5 9.5 H101 Z M107.6 103 v7 h1.9 a3.5 3.5 0 0 0 0 -7 Z"/>
    </g>
  </g>
  <path d="M100 150 C113 150 125 171 120.5 181.5 C116.5 191 83.5 191 79.5 181.5 C75 171 87 150 100 150 Z" fill="currentColor"/>
</svg>
